<?plantuml 1.2026.2?><svg xmlns="http://www.w3.org/2000/svg" xmlns:xlink="http://www.w3.org/1999/xlink" contentStyleType="text/css" data-diagram-type="ACTIVITY" height="715px" preserveAspectRatio="none" style="width:270px;height:715px;background:#FFFFFF;" version="1.1" viewBox="0 0 270 715" width="270px" zoomAndPan="magnify"><title>RK01 startup and first dispatch</title><defs/><g><g class="title" data-source-line="2"><text fill="#000000" font-family="sans-serif" font-size="14" font-weight="bold" lengthAdjust="spacing" textLength="227.4385" x="20" y="33.5352">RK01 startup and first dispatch</text></g><ellipse cx="135.2192" cy="57.4883" fill="#222222" rx="10" ry="10" style="stroke:#222222;stroke-width:1;"/><rect fill="#F1F1F1" height="34.1328" rx="12.5" ry="12.5" style="stroke:#181818;stroke-width:0.5;" width="103.0742" x="83.6821" y="87.4883"/><text fill="#000000" font-family="sans-serif" font-size="12" lengthAdjust="spacing" textLength="83.0742" x="93.6821" y="109.0898">Reset_Handler</text><rect fill="#F1F1F1" height="34.1328" rx="12.5" ry="12.5" style="stroke:#181818;stroke-width:0.5;" width="56.5508" x="106.9438" y="141.6211"/><text fill="#000000" font-family="sans-serif" font-size="12" lengthAdjust="spacing" textLength="36.5508" x="116.9438" y="163.2227">main()</text><rect fill="#F1F1F1" height="34.1328" rx="12.5" ry="12.5" style="stroke:#181818;stroke-width:0.5;" width="80.9492" x="94.7446" y="195.7539"/><text fill="#000000" font-family="sans-serif" font-size="12" lengthAdjust="spacing" textLength="60.9492" x="104.7446" y="217.3555">kCoreInit()</text><rect fill="#F1F1F1" height="34.1328" rx="12.5" ry="12.5" style="stroke:#181818;stroke-width:0.5;" width="53.6797" x="108.3794" y="249.8867"/><text fill="#000000" font-family="sans-serif" font-size="12" lengthAdjust="spacing" textLength="33.6797" x="118.3794" y="271.4883">kInit()</text><rect fill="#F1F1F1" height="34.1328" rx="12.5" ry="12.5" style="stroke:#181818;stroke-width:0.5;" width="157.9648" x="56.2368" y="304.0195"/><text fill="#000000" font-family="sans-serif" font-size="12" lengthAdjust="spacing" textLength="137.9648" x="66.2368" y="325.6211">fixed object-pool setup</text><rect fill="#F1F1F1" height="34.1328" rx="12.5" ry="12.5" style="stroke:#181818;stroke-width:0.5;" width="186.2949" x="42.0718" y="358.1523"/><text fill="#000000" font-family="sans-serif" font-size="12" lengthAdjust="spacing" textLength="166.2949" x="52.0718" y="379.7539">privileged system task setup</text><rect fill="#F1F1F1" height="34.1328" rx="12.5" ry="12.5" style="stroke:#181818;stroke-width:0.5;" width="119.5508" x="75.4438" y="412.2852"/><text fill="#000000" font-family="sans-serif" font-size="12" lengthAdjust="spacing" textLength="99.5508" x="85.4438" y="433.8867">kApplicationInit()</text><rect fill="#F1F1F1" height="34.1328" rx="12.5" ry="12.5" style="stroke:#181818;stroke-width:0.5;" width="143.2344" x="63.6021" y="466.418"/><text fill="#000000" font-family="sans-serif" font-size="12" lengthAdjust="spacing" textLength="123.2344" x="73.6021" y="488.0195">kMpuLayoutFinalize()</text><rect fill="#F1F1F1" height="34.1328" rx="12.5" ry="12.5" style="stroke:#181818;stroke-width:0.5;" width="201.4355" x="34.5015" y="520.5508"/><text fill="#000000" font-family="sans-serif" font-size="12" lengthAdjust="spacing" textLength="181.4355" x="44.5015" y="542.1523">first task dispatch through SVC</text><rect fill="#F1F1F1" height="34.1328" rx="12.5" ry="12.5" style="stroke:#181818;stroke-width:0.5;" width="244.6367" x="12.9009" y="574.6836"/><text fill="#000000" font-family="sans-serif" font-size="12" lengthAdjust="spacing" textLength="224.6367" x="22.9009" y="596.2852">ordinary task runs unprivileged on PSP</text><rect fill="#F1F1F1" height="34.1328" rx="12.5" ry="12.5" style="stroke:#181818;stroke-width:0.5;" width="231.4004" x="19.519" y="628.8164"/><text fill="#000000" font-family="sans-serif" font-size="12" lengthAdjust="spacing" textLength="211.4004" x="29.519" y="650.418">kernel services entered through SVC</text><ellipse cx="135.2192" cy="693.9492" fill="none" rx="11" ry="11" style="stroke:#222222;stroke-width:1;"/><ellipse cx="135.2192" cy="693.9492" fill="#222222" rx="6" ry="6" style="stroke:#222222;stroke-width:1;"/><line style="stroke:#181818;stroke-width:1;" x1="135.2192" x2="135.2192" y1="67.4883" y2="87.4883"/><polygon fill="#181818" points="131.2192,77.4883,135.2192,87.4883,139.2192,77.4883,135.2192,81.4883" style="stroke:#181818;stroke-width:1;"/><line style="stroke:#181818;stroke-width:1;" x1="135.2192" x2="135.2192" y1="121.6211" y2="141.6211"/><polygon fill="#181818" points="131.2192,131.6211,135.2192,141.6211,139.2192,131.6211,135.2192,135.6211" style="stroke:#181818;stroke-width:1;"/><line style="stroke:#181818;stroke-width:1;" x1="135.2192" x2="135.2192" y1="175.7539" y2="195.7539"/><polygon fill="#181818" points="131.2192,185.7539,135.2192,195.7539,139.2192,185.7539,135.2192,189.7539" style="stroke:#181818;stroke-width:1;"/><line style="stroke:#181818;stroke-width:1;" x1="135.2192" x2="135.2192" y1="229.8867" y2="249.8867"/><polygon fill="#181818" points="131.2192,239.8867,135.2192,249.8867,139.2192,239.8867,135.2192,243.8867" style="stroke:#181818;stroke-width:1;"/><line style="stroke:#181818;stroke-width:1;" x1="135.2192" x2="135.2192" y1="284.0195" y2="304.0195"/><polygon fill="#181818" points="131.2192,294.0195,135.2192,304.0195,139.2192,294.0195,135.2192,298.0195" style="stroke:#181818;stroke-width:1;"/><line style="stroke:#181818;stroke-width:1;" x1="135.2192" x2="135.2192" y1="338.1523" y2="358.1523"/><polygon fill="#181818" points="131.2192,348.1523,135.2192,358.1523,139.2192,348.1523,135.2192,352.1523" style="stroke:#181818;stroke-width:1;"/><line style="stroke:#181818;stroke-width:1;" x1="135.2192" x2="135.2192" y1="392.2852" y2="412.2852"/><polygon fill="#181818" points="131.2192,402.2852,135.2192,412.2852,139.2192,402.2852,135.2192,406.2852" style="stroke:#181818;stroke-width:1;"/><line style="stroke:#181818;stroke-width:1;" x1="135.2192" x2="135.2192" y1="446.418" y2="466.418"/><polygon fill="#181818" points="131.2192,456.418,135.2192,466.418,139.2192,456.418,135.2192,460.418" style="stroke:#181818;stroke-width:1;"/><line style="stroke:#181818;stroke-width:1;" x1="135.2192" x2="135.2192" y1="500.5508" y2="520.5508"/><polygon fill="#181818" points="131.2192,510.5508,135.2192,520.5508,139.2192,510.5508,135.2192,514.5508" style="stroke:#181818;stroke-width:1;"/><line style="stroke:#181818;stroke-width:1;" x1="135.2192" x2="135.2192" y1="554.6836" y2="574.6836"/><polygon fill="#181818" points="131.2192,564.6836,135.2192,574.6836,139.2192,564.6836,135.2192,568.6836" style="stroke:#181818;stroke-width:1;"/><line style="stroke:#181818;stroke-width:1;" x1="135.2192" x2="135.2192" y1="608.8164" y2="628.8164"/><polygon fill="#181818" points="131.2192,618.8164,135.2192,628.8164,139.2192,618.8164,135.2192,622.8164" style="stroke:#181818;stroke-width:1;"/><line style="stroke:#181818;stroke-width:1;" x1="135.2192" x2="135.2192" y1="662.9492" y2="682.9492"/><polygon fill="#181818" points="131.2192,672.9492,135.2192,682.9492,139.2192,672.9492,135.2192,676.9492" style="stroke:#181818;stroke-width:1;"/><?plantuml-src LOv1ImDH38Jl-ojor8EWrteg1L5KA2tqAi_Tj9lkQnAIlEBwwttRQjNRXFbcCa6H4LRFjtVWaIoAGk8EjcGUq95hYhPlJbOpMw5Zl3rM8AFTDxD38hwwhc9OYE4JKvolYzhI1tOWxtjiuqP5CjI2ejLHeoDbt5NRHmyyG2GVBlOmLytKfY3XtzvNBIzfb18Fn2dJ9tu_cRQUuZ-38NgJikjXlLbKGgoh0HlFa1LsAFndWJ0irylf0nhZDDAErA83Sg1Lu5-TX-WN?></g></svg>